<?xml version="1.0" encoding="UTF-8" standalone="no"?>
<!-- Created with Inkscape (http://www.inkscape.org/) -->

<svg
   width="108.48175mm"
   height="82.669823mm"
   viewBox="0 0 108.48175 82.669823"
   version="1.1"
   id="svg5"
   xml:space="preserve"
   inkscape:version="1.2.2 (b0a8486541, 2022-12-01)"
   sodipodi:docname="arc_en_ciel.svg"
   inkscape:export-filename="arc_en_ciel_red_pantone.png"
   inkscape:export-xdpi="96"
   inkscape:export-ydpi="96"
   xmlns:inkscape="http://www.inkscape.org/namespaces/inkscape"
   xmlns:sodipodi="http://sodipodi.sourceforge.net/DTD/sodipodi-0.dtd"
   xmlns="http://www.w3.org/2000/svg"
   xmlns:svg="http://www.w3.org/2000/svg"><sodipodi:namedview
     id="namedview7"
     pagecolor="#ffffff"
     bordercolor="#000000"
     borderopacity="0.25"
     inkscape:showpageshadow="2"
     inkscape:pageopacity="0.0"
     inkscape:pagecheckerboard="0"
     inkscape:deskcolor="#d1d1d1"
     inkscape:document-units="mm"
     showgrid="false"
     inkscape:zoom="1.3556054"
     inkscape:cx="11.802845"
     inkscape:cy="134.25736"
     inkscape:window-width="1366"
     inkscape:window-height="717"
     inkscape:window-x="0"
     inkscape:window-y="27"
     inkscape:window-maximized="1"
     inkscape:current-layer="layer1" /><defs
     id="defs2"><inkscape:path-effect
       effect="tiling"
       id="path-effect2207"
       is_visible="true"
       lpeversion="1"
       unit="px"
       seed="1;1"
       lpesatellites=""
       num_rows="1"
       num_cols="3"
       gapx="0"
       gapy="0"
       offset="0"
       offset_type="false"
       scale="10"
       rotate="0"
       mirrorrowsx="false"
       mirrorrowsy="false"
       mirrorcolsx="false"
       mirrorcolsy="false"
       mirrortrans="false"
       shrink_interp="false"
       split_items="false"
       link_styles="false"
       interpolate_scalex="false"
       interpolate_scaley="false"
       interpolate_rotatex="false"
       interpolate_rotatey="true"
       random_scale="false"
       random_rotate="false"
       random_gap_y="false"
       random_gap_x="false"
       transformorigin="scale(0.26458333)" /><pattern
       patternUnits="userSpaceOnUse"
       width="48.306197"
       height="151.15626"
       patternTransform="translate(197.87201,688.54086)"
       id="pattern2202"><path
         style="fill:none;stroke:#000000;stroke-width:0.999999;stroke-opacity:1"
         d="m 0.5479563,151.1555 c 0,0 -0.1503874,-97.782845 0.0848126,-108.383966 C 0.81365709,34.618488 5.3986662,23.1737 15.669196,13.476264 26.549348,3.2032816 38.84123,0.25128155 48.292196,0.51603746"
         id="path525"
         sodipodi:nodetypes="cssc" /></pattern></defs><g
     inkscape:label="Layer 1"
     inkscape:groupmode="layer"
     id="layer1"
     transform="translate(-32.783111,-117.67671)"><path
       style="fill:#e63946;stroke-width:0.264583;fill-opacity:0.40000001"
       d="m 32.96209,200.17014 c -0.293745,-0.29374 -0.201888,-30.82928 0.101179,-33.63456 1.416284,-13.10957 6.690548,-24.17884 15.916787,-33.40508 7.403029,-7.40303 16.690539,-12.35291 27.594188,-14.70661 3.277235,-0.70744 3.770524,-0.7427 10.451038,-0.74693 6.67625,-0.004 7.17591,0.0307 10.45105,0.73147 12.410938,2.65539 23.203798,9.00479 30.782228,18.10907 7.48421,8.9911 11.58382,18.71156 12.73216,30.18883 0.15477,1.54687 0.27414,9.47581 0.27414,18.20851 0,15.46849 0,15.46849 -0.59531,15.38395 -0.59531,-0.0846 -0.59531,-0.0846 -0.74446,-17.28247 -0.16098,-18.56371 -0.16446,-18.61307 -1.73812,-24.70263 -4.11281,-15.91525 -16.16536,-29.58013 -31.48237,-35.69393 -7.159618,-2.85777 -13.168558,-3.90439 -21.134523,-3.68117 -8.376724,0.23474 -14.762941,1.80461 -21.960417,5.39835 -16.299675,8.13852 -27.356926,24.07995 -29.231076,42.14292 -0.143438,1.38245 -0.26286,9.568 -0.265381,18.19011 -0.0044,15.02346 -0.02479,15.67656 -0.489655,15.67656 -0.266788,0 -0.564444,-0.0794 -0.661458,-0.17639 z m 8.131734,-0.19349 c -0.07806,-0.20343 -0.09,-7.79367 -0.02653,-16.86719 0.09278,-13.26231 0.194127,-16.91436 0.516846,-18.62414 1.899496,-10.06361 6.092084,-18.18381 12.902613,-24.98978 3.369278,-3.36702 6.007407,-5.4094 9.767986,-7.56216 7.164162,-4.10116 14.563513,-6.04846 22.902833,-6.02739 7.51542,0.019 13.677508,1.44564 20.108338,4.65548 14.48924,7.23206 23.88803,20.83661 25.51929,36.93861 0.1584,1.56363 0.27758,9.21083 0.27758,17.81164 0,15.07161 0,15.07161 -0.59531,14.98707 -0.59531,-0.0846 -0.59531,-0.0846 -0.74505,-16.88559 -0.15873,-17.80983 -0.15712,-17.78562 -1.53983,-23.15105 -2.61055,-10.12993 -9.52236,-19.71691 -18.55106,-25.73114 -15.220568,-10.13877 -35.456161,-9.76407 -50.524132,0.93556 -3.229232,2.29305 -8.124894,7.1814 -10.392855,10.37733 -3.399842,4.79094 -6.310636,11.41367 -7.446507,16.94252 -0.82927,4.03646 -0.953019,6.90593 -0.955166,22.14813 -0.0022,15.31425 -0.0056,15.41198 -0.539641,15.41198 -0.295609,0 -0.601342,-0.16644 -0.679407,-0.36988 z m 8.20487,0.007 c -0.07653,-0.19944 -0.09538,-7.55155 -0.04188,-16.33802 0.107728,-17.69371 0.139525,-18.08217 1.917372,-23.42377 3.202072,-9.62075 10.13832,-17.56173 19.360372,-22.16477 4.969386,-2.48039 10.335168,-3.68743 16.490724,-3.7096 4.88091,-0.0176 7.93564,0.47917 12.40284,2.01689 3.528938,1.21474 4.963078,1.90578 7.837788,3.77663 7.63915,4.97151 12.76578,11.5646 15.61581,20.08271 1.80659,5.39948 1.84385,5.88105 1.84534,23.85067 0.001,15.96365 -0.004,16.13959 -0.52782,16.13959 -0.52187,0 -0.53131,-0.22817 -0.68449,-16.53646 -0.14646,-15.59394 -0.18728,-16.67511 -0.71611,-18.96912 -1.75729,-7.62294 -5.047,-13.53317 -10.46274,-18.79715 -4.02924,-3.91632 -8.39322,-6.62006 -13.668948,-8.4687 -3.93989,-1.38056 -6.49189,-1.76769 -11.64167,-1.76601 -6.613312,0.002 -10.17722,0.8384 -16.271871,3.81803 -8.335653,4.07524 -14.943815,11.55536 -18.11273,20.50275 -1.965343,5.54912 -1.943811,5.30064 -2.057709,23.74636 -0.100698,16.30806 -0.111766,16.6026 -0.623822,16.6026 -0.286718,0 -0.583922,-0.16318 -0.660455,-0.36262 z m 8.258842,-0.0429 c -0.296818,-0.77348 -0.182624,-28.6797 0.127722,-31.21217 1.821773,-14.86594 14.423364,-26.06146 29.334594,-26.06146 6.1877,0 11.39014,1.6119 16.938768,5.24821 1.92793,1.26347 5.9696,5.31586 7.37399,7.39353 1.56657,2.31761 3.33926,6.12264 4.10822,8.81816 1.10883,3.88694 1.24594,6.45736 1.16286,21.79948 -0.0763,14.08532 -0.0849,14.2875 -0.60653,14.2875 -0.52173,0 -0.53137,-0.22864 -0.68591,-16.27188 -0.13176,-13.67812 -0.22453,-16.54601 -0.58193,-17.99166 -1.41901,-5.73961 -3.69947,-9.85171 -7.72289,-13.92577 -6.01626,-6.09197 -13.825918,-8.94501 -22.560832,-8.24196 -10.636089,0.85607 -20.269449,8.34548 -23.960053,18.62765 -1.580357,4.40293 -1.583466,4.44163 -1.749669,21.79286 -0.138737,14.48359 -0.194119,16.01168 -0.583028,16.08643 -0.236352,0.0454 -0.504243,-0.11158 -0.595312,-0.34891 z m 8.162237,-0.18785 c -0.08676,-0.34569 -0.112078,-7.40806 -0.05625,-15.69414 0.115128,-17.08764 0.05819,-16.56277 2.294575,-21.15102 3.191018,-6.54681 9.135322,-10.72934 16.765856,-11.7968 9.378988,-1.31205 19.278866,4.92252 22.431836,14.12674 1.21161,3.53695 1.32551,5.4438 1.24373,20.8211 -0.0742,13.95372 -0.0828,14.15521 -0.60445,14.15521 -0.52164,0 -0.53119,-0.22394 -0.6718,-15.74271 -0.15558,-17.17118 -0.0701,-16.18956 -1.76164,-20.22566 -1.7273,-4.12139 -5.18219,-7.71155 -9.525938,-9.89891 -3.8511,-1.93928 -9.15697,-2.54043 -13.440617,-1.52282 -6.076791,1.44359 -11.793268,6.4548 -13.988942,12.26308 -1.297194,3.4315 -1.296305,3.41954 -1.462743,19.64546 -0.146995,14.33049 -0.192268,15.48113 -0.612299,15.56185 -0.296156,0.0569 -0.508318,-0.13098 -0.61132,-0.54138 z m 8.204965,-0.25919 c -0.09137,-0.48705 -0.122494,-7.25128 -0.06916,-15.0316 0.09433,-13.76065 0.112927,-14.19398 0.68267,-15.9055 0.702564,-2.11054 2.326166,-4.62217 3.840898,-5.94168 0.608034,-0.52967 1.971466,-1.3796 3.02985,-1.88874 3.697168,-1.77854 7.700246,-1.78502 11.412426,-0.0185 2.23009,1.06126 4.94772,3.72844 5.93179,5.82168 1.472658,3.13254 1.511938,3.66046 1.437378,19.31587 -0.0675,14.16953 -0.0758,14.36873 -0.597598,14.36873 -0.52132,0 -0.53118,-0.22172 -0.66516,-14.94896 -0.1495,-16.43262 -0.11551,-16.08497 -1.83485,-18.76434 -2.06014,-3.21044 -5.39134,-5.26016 -8.94342,-5.50296 -5.672285,-0.38772 -10.126992,2.45101 -12.29556,7.83528 -0.589245,1.46302 -0.599143,1.68507 -0.732287,16.42856 -0.124336,13.76796 -0.170262,14.95229 -0.582906,15.0316 -0.325496,0.0626 -0.493348,-0.15596 -0.614069,-0.79946 z"
       id="path2462" /></g></svg>
