<?xml version="1.0" encoding="UTF-8" standalone="no"?>
<!-- Created with Inkscape (http://www.inkscape.org/) -->

<svg
   width="54.304352mm"
   height="82.66993mm"
   viewBox="0 0 54.304352 82.66993"
   version="1.1"
   id="svg5"
   xml:space="preserve"
   inkscape:version="1.2.2 (b0a8486541, 2022-12-01)"
   sodipodi:docname="arc_en_ciel_top_left_corner.svg"
   inkscape:export-filename="arc_en_ciel_top_left_red_pantone.png"
   inkscape:export-xdpi="96"
   inkscape:export-ydpi="96"
   xmlns:inkscape="http://www.inkscape.org/namespaces/inkscape"
   xmlns:sodipodi="http://sodipodi.sourceforge.net/DTD/sodipodi-0.dtd"
   xmlns="http://www.w3.org/2000/svg"
   xmlns:svg="http://www.w3.org/2000/svg"><sodipodi:namedview
     id="namedview7"
     pagecolor="#ffffff"
     bordercolor="#000000"
     borderopacity="0.25"
     inkscape:showpageshadow="2"
     inkscape:pageopacity="0.0"
     inkscape:pagecheckerboard="0"
     inkscape:deskcolor="#d1d1d1"
     inkscape:document-units="mm"
     showgrid="false"
     inkscape:zoom="0.95855777"
     inkscape:cx="63.63727"
     inkscape:cy="174.22007"
     inkscape:window-width="1366"
     inkscape:window-height="717"
     inkscape:window-x="0"
     inkscape:window-y="27"
     inkscape:window-maximized="1"
     inkscape:current-layer="layer1" /><defs
     id="defs2"><inkscape:path-effect
       effect="tiling"
       id="path-effect2207"
       is_visible="true"
       lpeversion="1"
       unit="px"
       seed="1;1"
       lpesatellites=""
       num_rows="1"
       num_cols="3"
       gapx="0"
       gapy="0"
       offset="0"
       offset_type="false"
       scale="10"
       rotate="0"
       mirrorrowsx="false"
       mirrorrowsy="false"
       mirrorcolsx="false"
       mirrorcolsy="false"
       mirrortrans="false"
       shrink_interp="false"
       split_items="false"
       link_styles="false"
       interpolate_scalex="false"
       interpolate_scaley="false"
       interpolate_rotatex="false"
       interpolate_rotatey="true"
       random_scale="false"
       random_rotate="false"
       random_gap_y="false"
       random_gap_x="false"
       transformorigin="scale(0.26458333)" /><pattern
       patternUnits="userSpaceOnUse"
       width="48.306197"
       height="151.15626"
       patternTransform="translate(197.87201,688.54086)"
       id="pattern2202"><path
         style="fill:none;stroke:#000000;stroke-width:0.999999;stroke-opacity:1"
         d="m 0.5479563,151.1555 c 0,0 -0.1503874,-97.782845 0.0848126,-108.383966 C 0.81365709,34.618488 5.3986662,23.1737 15.669196,13.476264 26.549348,3.2032816 38.84123,0.25128155 48.292196,0.51603746"
         id="path525"
         sodipodi:nodetypes="cssc" /></pattern></defs><g
     inkscape:label="Layer 1"
     inkscape:groupmode="layer"
     id="layer1"
     transform="translate(-32.782956,-117.67669)"><path
       id="path2462"
       style="fill:#e63946;fill-opacity:0.40000001;stroke-width:0.264583"
       d="m 32.845006,200.34658 c 6.6805,-0.004 7.17381,-0.0398 10.45104,-0.74724 10.90364,-2.3537 20.19116,-7.30357 27.59418,-14.7066 9.22623,-9.22623 14.50057,-20.29564 15.91686,-33.40519 0.30306,-2.80528 0.39503,-33.3409 0.10128,-33.63464 -0.097,-0.097 -0.39467,-0.17622 -0.66146,-0.17622 -0.46486,0 -0.48549,0.65312 -0.48989,15.67656 -0.003,8.6221 -0.12166,16.80766 -0.2651,18.19011 -1.87415,18.06295 -12.93163,34.00465 -29.23129,42.14316 -7.19747,3.59374 -13.5837,5.16338 -21.96042,5.39812 -0.51388,0.0144 -1.01879,0.0232 -1.51722,0.0269 v 1.23507 c 0.0258,-1e-5 0.0361,2e-5 0.062,0 z m -0.062,-8.23051 c 8.31043,0.01 15.68883,-1.93643 22.83272,-6.02598 3.76057,-2.15276 6.3986,-4.19532 9.76788,-7.56233 6.81052,-6.80597 11.00308,-14.92609 12.90257,-24.98969 0.32272,-1.70978 0.42398,-5.36189 0.51676,-18.62419 0.0635,-9.07351 0.0517,-16.66376 -0.0264,-16.86719 -0.0781,-0.20344 -0.38394,-0.37 -0.67955,-0.37 -0.53404,0 -0.5373,0.0977 -0.5395,15.41198 -0.002,15.24218 -0.12623,18.11155 -0.9555,22.148 -1.13587,5.52885 -4.04621,12.1517 -7.44605,16.94264 -2.26796,3.19592 -7.16394,8.08461 -10.39317,10.37766 -7.75408,5.5061 -16.87642,8.27028 -25.97981,8.28218 z m 0.062,-8.44031 c 6.15555,-0.0222 11.52108,-1.22894 16.49046,-3.70933 9.22204,-4.60304 16.15851,-12.54432 19.36058,-22.16506 1.77784,-5.34159 1.80946,-5.7302 1.91719,-23.42389 0.0535,-8.78646 0.0347,-16.13858 -0.0419,-16.33802 -0.0765,-0.19944 -0.3737,-0.36225 -0.66042,-0.36225 -0.51206,0 -0.52304,0.29456 -0.62373,16.6026 -0.1139,18.4457 -0.0924,18.19724 -2.05776,23.74636 -3.16891,8.94738 -9.77694,16.42738 -18.11259,20.50262 -6.09464,2.97963 -9.65857,3.81586 -16.27187,3.81786 -0.022,0 -0.0401,-5.1e-4 -0.062,-5.2e-4 v 1.32912 c 0.0215,-6e-5 0.0404,5.9e-4 0.062,5.1e-4 z m 0.006,-8.31939 c 14.91121,0 27.51236,-11.19553 29.33413,-26.06145 0.31034,-2.53247 0.42497,-30.43909 0.12815,-31.21257 -0.0911,-0.23733 -0.35896,-0.39422 -0.59531,-0.34882 -0.38891,0.0747 -0.44469,1.60279 -0.58343,16.08636 -0.1662,17.35121 -0.16889,17.39006 -1.74924,21.79299 -3.6906,10.28216 -13.32422,17.77173 -23.9603,18.6278 -0.89076,0.0717 -1.7711,0.10425 -2.6417,0.10232 v 1.01234 c 0.0228,4e-5 0.0449,10e-4 0.0677,10e-4 z m -0.0677,-8.27494 c 0.78863,-0.007 1.57758,-0.0591 2.36317,-0.16898 7.63052,-1.06746 13.57488,-5.2499 16.7659,-11.7967 2.23638,-4.58825 2.17982,-4.06354 2.29495,-21.15116 0.0558,-8.28608 0.0304,-15.34845 -0.0563,-15.69414 -0.103,-0.4104 -0.31517,-0.59847 -0.61133,-0.54157 -0.42003,0.0807 -0.46537,1.23137 -0.61237,15.56184 -0.16643,16.22591 -0.16576,16.21434 -1.46296,19.64583 -2.19567,5.80828 -7.91202,10.81923 -13.98881,12.26282 -1.47627,0.3507 -3.07451,0.50499 -4.69222,0.48266 z m 0,-8.446 c 1.91952,-0.007 3.83673,-0.45257 5.67821,-1.33842 1.05838,-0.50914 2.42176,-1.3591 3.02979,-1.88877 1.51473,-1.31951 3.13855,-3.83122 3.84111,-5.94176 0.56974,-1.71152 0.58831,-2.14485 0.68264,-15.90549 0.0533,-7.78031 0.0221,-14.54459 -0.0692,-15.03164 -0.12072,-0.6435 -0.28842,-0.86203 -0.61392,-0.79943 -0.41264,0.0793 -0.45857,1.26369 -0.58291,15.03164 -0.13314,14.74347 -0.14301,14.96595 -0.73225,16.42897 -2.03126,5.04334 -6.06874,7.85282 -11.23343,7.8698 z" /></g></svg>
